HIERARCHY
ROOT Hips
{
	OFFSET 0.000000 0.000000 0.000000
	CHANNELS 6 Xposition Yposition Zposition Xrotation Yrotation Zrotation
	JOINT LeftUpLeg_virtual
	{
		OFFSET 0.000000 0.000000 0.000000
		CHANNELS 3 Xrotation Yrotation Zrotation
		JOINT LeftUpLeg
		{
			OFFSET 11.394100 -6.187798 -0.413800
			CHANNELS 3 Xrotation Yrotation Zrotation
			JOINT LeftLeg
			{
				OFFSET 0.430247 -32.302673 3.732800
				CHANNELS 3 Xrotation Yrotation Zrotation
				JOINT LeftFoot
				{
					OFFSET -0.430247 -48.264931 -6.423300
					CHANNELS 3 Xrotation Yrotation Zrotation
					JOINT LeftToeBase
					{
						OFFSET 4.230900 -16.068199 23.438400
						CHANNELS 3 Xrotation Yrotation Zrotation
						JOINT LeftToe_End
						{
							OFFSET 4.510700 0.695400 19.974600
							CHANNELS 3 Xrotation Yrotation Zrotation
							End Site
							{
								OFFSET 0 0 0
							}
						}
					}
				}
			}
		}
	}
	JOINT RightUpLeg_virtual
	{
		OFFSET 0.000000 0.000000 0.000000
		CHANNELS 3 Xrotation Yrotation Zrotation
		JOINT RightUpLeg
		{
			OFFSET -11.333700 -6.187798 -0.413800
			CHANNELS 3 Xrotation Yrotation Zrotation
			JOINT RightLeg
			{
				OFFSET -0.430392 -32.302628 3.733000
				CHANNELS 3 Xrotation Yrotation Zrotation
				JOINT RightFoot
				{
					OFFSET 0.430392 -48.264973 -6.423500
					CHANNELS 3 Xrotation Yrotation Zrotation
					JOINT RightToeBase
					{
						OFFSET -4.230900 -16.068199 23.438400
						CHANNELS 3 Xrotation Yrotation Zrotation
						JOINT RightToe_End
						{
							OFFSET -4.510700 0.695400 19.974600
							CHANNELS 3 Xrotation Yrotation Zrotation
							End Site
							{
								OFFSET 0 0 0
							}
						}
					}
				}
			}
		}
	}
	JOINT Spine_virtual
	{
		OFFSET 0.000000 0.000000 0.000000
		CHANNELS 3 Xrotation Yrotation Zrotation
		JOINT Spine
		{
			OFFSET -0.002400 12.777504 0.315300
			CHANNELS 3 Xrotation Yrotation Zrotation
			JOINT Spine1
			{
				OFFSET -0.002067 5.816869 0.032633
				CHANNELS 3 Xrotation Yrotation Zrotation
				JOINT Spine1_split
				{
					OFFSET -0.002067 5.816869 0.032633
					CHANNELS 3 Xrotation Yrotation Zrotation
					JOINT Spine2
					{
						OFFSET -0.002067 5.816869 0.032633
						CHANNELS 3 Xrotation Yrotation Zrotation
						JOINT Neck_virtual
						{
							OFFSET 0.000000 0.000000 0.000000
							CHANNELS 3 Xrotation Yrotation Zrotation
							JOINT Neck
							{
								OFFSET -0.003700 21.199493 -0.826900
								CHANNELS 3 Xrotation Yrotation Zrotation
								JOINT Head
								{
									OFFSET 0.000000 20.442200 4.834800
									CHANNELS 3 Xrotation Yrotation Zrotation
									JOINT HeadTop_End
									{
										OFFSET 0.000000 34.668396 4.968400
										CHANNELS 3 Xrotation Yrotation Zrotation
										End Site
										{
											OFFSET 0 0 0
										}
									}
								}
							}
						}
						JOINT LeftShoulder_virtual
						{
							OFFSET 0.000000 0.000000 0.000000
							CHANNELS 3 Xrotation Yrotation Zrotation
							JOINT LeftShoulder
							{
								OFFSET 3.288150 8.794197 -1.372250
								CHANNELS 3 Xrotation Yrotation Zrotation
								JOINT LeftShoulder_split
								{
									OFFSET 3.288150 8.794197 -1.372250
									CHANNELS 3 Xrotation Yrotation Zrotation
									JOINT LeftArm
									{
										OFFSET 11.953299 -2.279007 -0.146200
										CHANNELS 3 Xrotation Yrotation Zrotation
										JOINT LeftForeArm
										{
											OFFSET 18.448900 0.000000 0.000000
											CHANNELS 3 Xrotation Yrotation Zrotation
											JOINT LeftHand
											{
												OFFSET 29.527798 0.000000 0.000000
												CHANNELS 3 Xrotation Yrotation Zrotation
												End Site
												{
													OFFSET 0 0 0
												}
											}
										}
									}
								}
							}
						}
						JOINT RightShoulder_virtual
						{
							OFFSET 0.000000 0.000000 0.000000
							CHANNELS 3 Xrotation Yrotation Zrotation
							JOINT RightShoulder
							{
								OFFSET -3.249400 8.794197 -1.372250
								CHANNELS 3 Xrotation Yrotation Zrotation
								JOINT RightShoulder_split
								{
									OFFSET -3.249400 8.794197 -1.372250
									CHANNELS 3 Xrotation Yrotation Zrotation
									JOINT RightArm
									{
										OFFSET -11.953299 -2.279007 -0.146200
										CHANNELS 3 Xrotation Yrotation Zrotation
										JOINT RightForeArm
										{
											OFFSET -18.448900 0.000000 0.000000
											CHANNELS 3 Xrotation Yrotation Zrotation
											JOINT RightHand
											{
												OFFSET -29.527802 0.000000 0.000000
												CHANNELS 3 Xrotation Yrotation Zrotation
												End Site
												{
													OFFSET 0 0 0
												}
											}
										}
									}
								}
							}
						}
					}
				}
			}
		}
	}
}
MOTION
Frames: 11
Frame Time: 0.03333333
-0.863111 92.341187 43.446430 0.000000 0.000000 0.000000 9.566488 -5.614303 0.183996 -36.523986 5.242394 17.219535 39.075632 8.563689 0.570468 -9.127917 -4.252521 -12.768454 0.832729 -0.669617 0.973513 0.000000 0.000000 0.000000 9.901840 -5.410316 0.435468 -40.752751 -2.062220 -5.780284 40.379204 1.306087 -4.372799 -9.195280 -9.575778 7.874338 1.424870 0.253385 -0.245028 0.000000 0.000000 0.000000 9.658342 -4.983876 -0.066579 6.460509 0.043878 -0.544629 1.792500 -0.350132 0.426334 1.103103 1.571508 -0.072566 0.000000 0.000000 0.000000 1.716557 -0.803120 0.353570 12.494695 -0.414474 0.704375 -30.167784 0.676255 -4.918064 0.000000 0.000000 0.000000 1.621704 -0.700442 0.670043 5.917424 -9.344458 19.450500 -1.234412 -4.206735 -0.033159 -33.109229 -15.120249 -13.790796 178.401071 -58.143379 179.708629 0.000000 0.000000 0.000000 0.880689 -0.755749 0.566617 -0.818484 -8.203896 -16.405640 0.367702 -0.560524 1.994693 -38.504239 35.802267 31.278090 179.106124 52.080735 -179.663495 0.000000 0.000000 0.000000 
-0.946454 94.179863 44.512123 0.000000 0.000000 0.000000 9.804678 -5.397469 0.339261 -32.973288 6.369725 16.598874 33.695229 8.818033 0.652865 -8.337083 -4.157438 -12.377936 1.392462 -0.513463 0.563143 0.000000 0.000000 0.000000 10.265119 -5.020280 0.480571 -37.076825 -2.372698 -5.679062 34.919496 1.176786 -4.356642 -7.303236 -9.649023 7.967570 0.716679 0.150062 -0.090015 0.000000 0.000000 0.000000 10.066993 -4.797906 0.063582 6.164602 -0.062800 -0.486857 0.926444 -0.378239 0.285234 1.214737 1.471672 0.041877 0.000000 0.000000 0.000000 0.713352 -0.825532 0.222699 12.252019 -0.387849 0.914467 -29.141849 0.572917 -4.699793 0.000000 0.000000 0.000000 0.573926 -0.751474 0.492150 5.927423 -9.383222 19.223644 -1.464755 -3.976144 -0.040200 -32.546852 -15.610896 -14.148155 178.643092 -58.414414 179.923111 0.000000 0.000000 0.000000 -0.180070 -0.764564 0.468657 -0.930515 -8.154023 -16.398495 0.548386 -0.914690 2.086630 -36.996536 36.617440 30.585741 179.004382 52.305131 -179.328215 0.000000 0.000000 0.000000 
-1.009716 95.782730 45.421345 0.000000 0.000000 0.000000 10.046235 -5.106506 0.479649 -29.696368 7.358531 15.940770 28.589811 8.978453 0.758671 -7.481579 -4.234442 -12.127275 1.873495 -0.330010 0.248894 0.000000 0.000000 0.000000 10.584512 -4.579131 0.515812 -33.704818 -2.536318 -5.626334 30.048874 0.996130 -4.302938 -5.582251 -9.717206 7.988098 0.294645 0.041035 0.052351 0.000000 0.000000 0.000000 10.428439 -4.470261 0.188857 5.934484 -0.163306 -0.467927 0.150187 -0.432781 0.196753 1.260117 1.355883 0.146883 0.000000 0.000000 0.000000 -0.133974 -0.870412 0.154941 11.830383 -0.362915 1.018505 -28.133619 0.538940 -4.518476 0.000000 0.000000 0.000000 -0.349636 -0.801820 0.366043 5.828752 -9.072164 18.993050 -1.586234 -3.897900 -0.013919 -31.666857 -16.907090 -14.416952 178.888419 -58.872331 -179.868906 0.000000 0.000000 0.000000 -1.100463 -0.795935 0.400046 -1.084718 -8.185307 -16.279795 0.591506 -1.319806 2.117706 -35.440093 37.499053 30.099250 178.888802 52.598693 -178.952240 0.000000 0.000000 0.000000 
-1.039264 96.977585 46.075340 0.000000 0.000000 0.000000 10.206027 -4.808242 0.582287 -27.055568 8.114312 15.376670 24.318475 9.025587 0.841982 -6.504393 -4.488857 -12.079588 2.163718 -0.137619 0.053850 0.000000 0.000000 0.000000 10.838032 -4.173032 0.542830 -30.988322 -2.593653 -5.652785 26.101105 0.809186 -4.228250 -4.221724 -9.727862 7.924008 0.377963 -0.057709 0.134765 0.000000 0.000000 0.000000 10.710703 -4.100364 0.286526 5.788695 -0.235116 -0.467307 -0.464595 -0.498837 0.165507 1.251237 1.284675 0.157988 0.000000 0.000000 0.000000 -0.761614 -0.934452 0.156595 11.360260 -0.344179 1.051000 -27.132071 0.593042 -4.410235 0.000000 0.000000 0.000000 -1.094263 -0.848455 0.311881 5.646990 -8.397178 18.788389 -1.670514 -3.856452 0.038938 -30.690212 -18.798077 -14.631180 179.156900 -59.029036 -179.604469 0.000000 0.000000 0.000000 -1.792441 -0.838037 0.367777 -1.266029 -8.305736 -16.072694 0.467655 -1.506619 2.122192 -34.097629 38.160513 29.909142 178.799791 52.820353 -178.641521 0.000000 0.000000 0.000000 
-1.050315 97.733978 46.469093 0.000000 0.000000 0.000000 10.303317 -4.604107 0.649288 -25.228209 8.583179 14.975883 21.232008 8.996285 0.868237 -5.395781 -4.890138 -12.179216 2.402954 0.045182 -0.045426 0.000000 0.000000 0.000000 11.015945 -3.880995 0.552439 -29.092508 -2.563332 -5.752087 23.301687 0.643153 -4.125282 -3.230829 -9.684500 7.789446 0.763770 -0.139828 0.161793 0.000000 0.000000 0.000000 10.898434 -3.743326 0.352477 5.725882 -0.266034 -0.458751 -0.902616 -0.567646 0.171897 1.232234 1.276510 0.098044 0.000000 0.000000 0.000000 -1.169212 -1.004350 0.210305 10.975448 -0.299266 1.046779 -26.113106 0.724990 -4.388336 0.000000 0.000000 0.000000 -1.653337 -0.878043 0.312566 5.402351 -7.380781 18.521062 -1.580586 -4.026243 0.111340 -29.614041 -20.981014 -14.922882 179.415054 -58.538703 -179.331958 0.000000 0.000000 0.000000 -2.226119 -0.883445 0.349613 -1.441647 -8.483807 -15.835782 0.123944 -1.439729 2.203362 -32.929913 38.318676 29.985808 178.792796 52.831872 -178.491708 0.000000 0.000000 0.000000 
-1.062405 98.114624 46.612144 0.000000 0.000000 0.000000 10.345186 -4.502401 0.688770 -24.246562 8.805240 14.757602 19.358896 8.995745 0.812761 -4.323737 -5.331223 -12.248120 2.765863 0.210163 -0.126960 0.000000 0.000000 0.000000 11.140710 -3.649596 0.562004 -27.965030 -2.505997 -5.894666 21.545670 0.473716 -4.004592 -2.561644 -9.620276 7.591374 1.136730 -0.217058 0.140731 0.000000 0.000000 0.000000 10.975555 -3.410349 0.381173 5.727319 -0.255862 -0.427701 -1.185013 -0.629450 0.188285 1.152246 1.228176 -0.000674 0.000000 0.000000 0.000000 -1.421323 -1.072498 0.274354 10.781378 -0.224758 1.023012 -25.017873 0.882294 -4.465649 0.000000 0.000000 0.000000 -2.052823 -0.893328 0.335301 5.143442 -6.175416 18.069645 -1.280303 -4.262275 0.204613 -28.271522 -23.161486 -15.414171 179.588527 -57.513772 -179.132680 0.000000 0.000000 0.000000 -2.453270 -0.927036 0.326715 -1.579315 -8.663772 -15.606002 -0.380469 -1.266666 2.241397 -31.725242 37.778722 30.287832 178.900645 52.604737 -178.563657 0.000000 0.000000 0.000000 
-1.101588 98.235878 46.485321 0.000000 0.000000 0.000000 10.343287 -4.504482 0.716325 -23.923255 8.779389 14.653069 18.404471 9.079096 0.714827 -3.458252 -5.704715 -12.175426 3.178408 0.358776 -0.211832 0.000000 0.000000 0.000000 11.195957 -3.499584 0.572144 -27.495464 -2.463392 -6.040758 20.588197 0.260126 -3.875780 -2.135210 -9.602674 7.356641 1.312407 -0.312322 0.114233 0.000000 0.000000 0.000000 10.985357 -3.168338 0.383955 5.761226 -0.206634 -0.355307 -1.368294 -0.673699 0.197929 1.051008 1.269598 -0.052032 0.000000 0.000000 0.000000 -1.620780 -1.133880 0.324786 10.807318 -0.120549 0.994669 -23.820541 0.989119 -4.624353 0.000000 0.000000 0.000000 -2.340149 -0.915512 0.345006 4.934394 -5.029810 17.297171 -0.835939 -4.490332 0.429867 -26.543461 -25.054573 -16.273955 179.596464 -56.516701 -179.136819 0.000000 0.000000 0.000000 -2.543438 -0.955298 0.291116 -1.658210 -8.749680 -15.439450 -0.764554 -1.033379 2.231441 -30.254135 36.601075 30.872004 179.089677 52.220870 -178.825786 0.000000 0.000000 0.000000 
-1.152518 98.225708 46.163822 0.000000 0.000000 0.000000 10.329135 -4.490922 0.742377 -24.021668 8.557670 14.579087 18.055014 9.225145 0.610504 -2.859371 -5.972851 -11.985807 3.501107 0.478109 -0.275105 0.000000 0.000000 0.000000 11.157059 -3.318974 0.600613 -27.481618 -2.445211 -6.195710 20.211368 -0.014220 -3.734540 -1.894626 -9.643068 7.065277 1.300227 -0.415823 0.143167 0.000000 0.000000 0.000000 10.931816 -2.964715 0.384344 5.802915 -0.142484 -0.245028 -1.520614 -0.703395 0.191560 0.941295 1.279558 -0.055857 0.000000 0.000000 0.000000 -1.837869 -1.183330 0.346842 11.019129 -0.007407 0.938239 -22.542020 0.964526 -4.833057 0.000000 0.000000 0.000000 -2.556206 -0.939522 0.315288 4.827097 -4.171130 16.111153 -0.432641 -4.726387 0.736582 -24.098181 -26.619032 -17.506791 179.428646 -56.226254 -179.370248 0.000000 0.000000 0.000000 -2.598222 -0.975565 0.245000 -1.652378 -8.620831 -15.385269 -1.043020 -0.899738 2.089564 -28.187185 35.048843 31.794920 179.278969 51.965121 -179.175656 0.000000 0.000000 0.000000 
-1.214756 98.182434 45.736202 0.000000 0.000000 0.000000 10.293128 -4.335392 0.770916 -24.322449 8.222236 14.498110 17.954674 9.362408 0.515730 -2.414688 -6.159043 -11.812448 3.647781 0.563215 -0.324618 0.000000 0.000000 0.000000 11.040127 -3.126631 0.652532 -27.746739 -2.464794 -6.382814 20.163970 -0.304467 -3.588874 -1.741189 -9.702343 6.794393 1.317530 -0.508931 0.227483 0.000000 0.000000 0.000000 10.876190 -2.775775 0.393095 5.846861 -0.080039 -0.110285 -1.673757 -0.713443 0.183925 0.851026 1.184760 -0.023678 0.000000 0.000000 0.000000 -2.108254 -1.218603 0.357913 11.326111 0.075390 0.834318 -21.201100 0.754191 -5.061026 0.000000 0.000000 0.000000 -2.736246 -0.969176 0.255759 4.851585 -3.801549 14.552906 -0.241676 -4.885811 1.033908 -21.035910 -27.877738 -19.124989 179.116411 -56.998543 -179.781548 0.000000 0.000000 0.000000 -2.685184 -0.972383 0.209709 -1.563976 -8.182444 -15.473175 -1.068795 -0.759793 1.859808 -25.542426 33.542260 33.182428 179.377993 52.128352 -179.506879 0.000000 0.000000 0.000000 
-1.266502 98.139664 45.256218 0.000000 0.000000 0.000000 10.221513 -4.053027 0.798355 -24.692486 7.845741 14.436016 17.932831 9.425888 0.411781 -1.955540 -6.334382 -11.762142 3.603849 0.611621 -0.352504 0.000000 0.000000 0.000000 10.854343 -2.902619 0.716777 -28.128106 -2.506347 -6.618908 20.232680 -0.569650 -3.445463 -1.572328 -9.752988 6.609310 1.496822 -0.566585 0.345109 0.000000 0.000000 0.000000 10.783962 -2.601721 0.415668 5.880214 -0.037478 0.029966 -1.848841 -0.711584 0.195902 0.872028 1.091940 0.054001 0.000000 0.000000 0.000000 -2.409435 -1.231953 0.384291 11.624489 0.081978 0.677058 -19.857158 0.342821 -5.274443 0.000000 0.000000 0.000000 -2.904210 -0.989220 0.196259 4.985480 -3.983706 12.768092 -0.287767 -5.094485 1.275871 -17.607251 -28.889429 -21.079195 178.717309 -58.775806 179.702468 0.000000 0.000000 0.000000 -2.822029 -0.944674 0.204849 -1.384148 -7.397179 -15.690551 -0.877640 -0.482005 1.549043 -22.411616 32.473981 35.149912 179.329950 52.949262 -179.727767 0.000000 0.000000 0.000000 
-1.300558 98.117363 44.781490 0.000000 0.000000 0.000000 10.099046 -3.699743 0.827541 -25.042993 7.514578 14.419158 17.957937 9.440563 0.277612 -1.415977 -6.491161 -11.789461 3.526969 0.630037 -0.409559 0.000000 0.000000 0.000000 10.655227 -2.667876 0.791178 -28.479307 -2.593877 -6.872922 20.244433 -0.767307 -3.327547 -1.351882 -9.774387 6.606153 1.732453 -0.573287 0.395366 0.000000 0.000000 0.000000 10.648156 -2.475712 0.449016 5.888291 -0.021489 0.158131 -2.042502 -0.696841 0.246006 0.914457 0.951649 0.063410 0.000000 0.000000 0.000000 -2.690729 -1.218500 0.450400 11.848035 -0.001659 0.462311 -18.487615 -0.221971 -5.469514 0.000000 0.000000 0.000000 -3.070908 -0.973349 0.180516 5.185999 -4.674689 10.963430 -0.444275 -5.188431 1.416840 -14.207696 -29.689545 -23.334780 178.328931 -61.157213 179.229082 0.000000 0.000000 0.000000 -3.005733 -0.895657 0.244975 -1.114008 -6.307221 -15.956437 -0.559510 -0.119675 1.335972 -18.986661 31.958732 37.630217 179.145740 54.569790 -179.823977 0.000000 0.000000 0.000000 
